HD DESI ROCKERS GROUP RELEASES


INFO:

Title..................: James Bond "GoldenEye" Pierce Brosnan
Year...................: 1995
Genre..................: Spy | Action
Directer...............: Martin Campbell
Run time...............: 2h 9mn 46sec
size ..................: 871 MB
Languages..............: English.Hindi

___________________________________________________________________________

Video

Format                           : MKV
Duration                         : 2h 9mn 46sec
Display aspect ratio             : 2.25:1
Resolution                       : 720*320
Bit Rate                         : 939 Kbps
Stream size                      : 497 MiB (58%) 
_______________________________________________________________________________


Audio #1 :English
ID                               : 1
Format                           : MPEG 1 Layer 3
Duration                         : 2h 9mn 46sec
Bit rate mode                    : Constant
Bit rate                         : 128 Kbps
Channel(s)                       : 2 channels
Channel positions                : Front: L R
Sampling rate                    : 48.0 KHz
Stream size                      : 119 MiB (14%) 

____________________________________________________________________________


Audio #2 :Hindi
ID                               : 2
Format                           : MPEG 1 Layer 3 
Duration                         : 2h 9mn 46sec
Bit rate mode                    : Constant
Bit rate                         : 256 Kbps
Channel(s)                       : 2 channels
Channel positions                : Front: L R
Sampling rate                    : 44.1 KHz
Stream size                      : 238 MiB (28%)
__________________________________________________________________________



Seeding at 2:00 AM ISt - 8:00 AM ISt
Please wait during seeding
Plz seed after download
Thankyou...


Screens
 
http://img34.imageshack.us/img34/7110/13945537.jpg 
http://img9.imageshack.us/img9/5971/73445811.jpg 
http://img80.imageshack.us/img80/103/69698819.jpg 
http://img34.imageshack.us/img34/7420/67525227.jpg 
http://img535.imageshack.us/img535/3166/95091542.jpg 
http://img31.imageshack.us/img31/6342/32592820.jpg 
http://img155.imageshack.us/img155/9955/84402741.jpg 
http://img571.imageshack.us/img571/2274/97576033.jpg
